<svg xmlns="http://www.w3.org/2000/svg" viewBox="0 0 100 100" fill="none">
  <!-- Rounded Background -->
  <rect width="100" height="100" rx="24" fill="#10b981"/>
  
  <!-- Face/Scan Icon (Simplified Lucide ScanFace style) -->
  <path d="M30 40V30C30 27.2386 32.2386 25 35 25H45" stroke="white" stroke-width="5" stroke-linecap="round"/>
  <path d="M55 25H65C67.7614 25 70 27.2386 70 30V40" stroke="white" stroke-width="5" stroke-linecap="round"/>
  <path d="M70 60V70C70 72.7614 67.7614 75 65 75H55" stroke="white" stroke-width="5" stroke-linecap="round"/>
  <path d="M45 75H35C32.2386 75 30 72.7614 30 70V60" stroke="white" stroke-width="5" stroke-linecap="round"/>
  
  <!-- Facial Features -->
  <circle cx="42" cy="46" r="3" fill="white"/>
  <circle cx="58" cy="46" r="3" fill="white"/>
  <path d="M44 62C46 64 48 65 50 65C52 65 54 64 56 62" stroke="white" stroke-width="5" stroke-linecap="round"/>
  
  <!-- Scanning Line (Accent) -->
  <line x1="25" y1="50" x2="75" y2="50" stroke="#6ee7b7" stroke-width="2" stroke-dasharray="3 3"/>
</svg>
